<svg width="288" height="288" xmlns="http://www.w3.org/2000/svg"><svg xmlns="http://www.w3.org/2000/svg" viewBox="0 0 24 24" width="288" height="288"><g data-name="Layer 2" fill="#d3d3b5" class="color000 svgShape"><g data-name="checkmark-circle-2" class="color000 svgShape"><path d="M12 2a10 10 0 1 0 10 10A10 10 0 0 0 12 2zm0 18a8 8 0 1 1 8-8 8 8 0 0 1-8 8z" class="color000 svgShape"/><path d="m14.7 8.39-3.78 5-1.63-2.11a1 1 0 0 0-1.58 1.23l2.43 3.11a1 1 0 0 0 .79.38 1 1 0 0 0 .79-.39l4.57-6a1 1 0 1 0-1.6-1.22z" class="color000 svgShape"/></g></g></svg></svg>