<svg xmlns="http://www.w3.org/2000/svg" width="1000" height="997.517"><path d="M55.5 1002.345h997.517v538.49l-49.375 77.147 49.375 68.661v313.22H55.5v-507.631l30.859-35.488-30.859-33.945Z" style="fill:#016fd0;fill-opacity:1;stroke:none" transform="translate(-55.5 -1002.345)"/><path d="M249.14 1697.444v-156.61h165.82l17.791 23.193 18.38-23.192h601.886v145.808s-15.74 10.644-33.945 10.801H685.795l-20.058-24.687v24.687h-65.73v-42.142s-8.979 5.883-28.39 5.883h-22.373v36.26h-99.52l-17.766-23.69-18.038 23.69zM55.5 1422.8l37.393-87.177h64.668l21.22 48.832v-48.833h80.388l12.633 35.295 12.247-35.294h360.858v17.743s18.97-17.744 50.146-17.744l117.085.41 20.854 48.193v-48.602h67.273l18.515 27.683v-27.684h67.89v156.61h-67.89l-17.744-27.773v27.773h-98.838l-9.94-24.687h-26.57l-9.779 24.687h-67.028c-26.826 0-43.974-17.382-43.974-17.382v17.382H543.843l-20.058-24.687v24.687H147.981l-9.933-24.687H111.56l-9.862 24.687H55.5z" style="fill:#fff;stroke:none" transform="translate(-55.5 -1002.345)"/><path d="m106.128 1354.93-50.435 117.263h32.836l9.306-23.481h54.1l9.257 23.481h33.56l-50.388-117.264h-38.236zm18.66 27.29 16.49 41.033H108.25l16.538-41.033zm73.435 89.954v-117.265l46.661.174 27.14 75.604 26.49-75.778h46.289v117.264h-29.316v-86.405l-31.076 86.405h-25.71l-31.162-86.405v86.405zm166.638 0v-117.265h95.663v26.23h-66.038v20.059h64.495v24.687h-64.495v20.83h66.038v25.459zm112.636-117.244v117.263h29.316v-41.66h12.343l35.15 41.66h35.826l-38.574-43.202c15.831-1.336 32.161-14.924 32.161-36.018 0-24.677-19.368-38.044-40.985-38.044h-65.237zm29.316 26.23h33.51c8.04 0 13.887 6.287 13.887 12.343 0 7.79-7.577 12.343-13.452 12.343h-33.945v-24.687zm118.807 91.014h-29.933v-117.265h29.933zm70.975 0h-6.46c-31.262 0-50.243-24.63-50.243-58.15 0-34.35 18.768-59.115 58.246-59.115h32.402v27.773h-33.586c-16.026 0-27.36 12.507-27.36 31.63 0 22.71 12.96 32.249 31.63 32.249h7.715zm63.792-117.244-50.435 117.263h32.836l9.305-23.481h54.1l9.258 23.481h33.559l-50.387-117.264h-38.236zm18.66 27.29 16.49 41.033h-33.029l16.539-41.033zm73.386 89.954v-117.265h37.272l47.59 73.676v-73.676h29.317v117.264h-36.067l-48.796-75.604v75.605zm-583.234 205.212v-117.264h95.662v26.23h-66.038v20.058h64.495v24.687h-64.495v20.83h66.038v25.459zm468.748 0v-117.264h95.662v26.23h-66.038v20.058h64.187v24.687H767.57v20.83h66.038v25.459zm-369.373 0 46.578-57.91-47.687-59.354H404.4l28.4 36.693 28.497-36.693h35.488l-47.06 58.632 46.663 58.632H459.46l-27.576-36.115-26.905 36.115zm131.296-117.245v117.264h30.087v-37.03h30.859c26.111 0 45.903-13.853 45.903-40.792 0-22.316-15.523-39.442-42.094-39.442H499.87zm30.087 26.52h32.498c8.436 0 14.465 5.17 14.465 13.5 0 7.827-5.999 13.501-14.561 13.501h-32.402v-27.001zm89.491-26.539v117.264h29.316v-41.66h12.344l35.15 41.66h35.825l-38.573-43.203c15.83-1.336 32.16-14.923 32.16-36.018 0-24.676-19.368-38.043-40.984-38.043h-65.238zm29.316 26.23h33.511c8.039 0 13.887 6.288 13.887 12.343 0 7.79-7.577 12.344-13.453 12.344h-33.945v-24.687zm198.423 91.034v-25.459h58.671c8.681 0 12.44-4.691 12.44-9.836 0-4.93-3.747-9.914-12.44-9.914h-26.513c-23.045 0-35.88-14.04-35.88-35.121 0-18.802 11.753-36.934 46-36.934h57.088l-12.343 26.384h-49.375c-9.438 0-12.343 4.953-12.343 9.682 0 4.861 3.59 10.222 10.8 10.222h27.773c25.69 0 36.838 14.572 36.838 33.656 0 20.516-12.422 37.32-38.236 37.32zm107.597 0v-25.459h58.67c8.682 0 12.44-4.691 12.44-9.836 0-4.93-3.746-9.914-12.44-9.914h-26.512c-23.046 0-35.88-14.04-35.88-35.121 0-18.802 11.753-36.934 45.999-36.934h57.089l-12.344 26.384h-49.374c-9.438 0-12.344 4.953-12.344 9.682 0 4.861 3.59 10.222 10.801 10.222h27.773c25.69 0 36.838 14.572 36.838 33.656 0 20.516-12.422 37.32-38.236 37.32z" style="fill:#016fd0;fill-opacity:1;stroke:none" transform="translate(-55.5 -1002.345)"/></svg>